<svg xmlns:xlink="http://www.w3.org/1999/xlink" xmlns="http://www.w3.org/2000/svg" id="Layer_1" data-name="Layer 1" viewBox="0 0 2134.05 511.71" width="2134.05"  height="511.71" ><defs><style>.cls-1{fill:#1d1d1b;}.cls-2{fill:#48b16c;}</style></defs><path class="cls-1" d="M1195.49,151.37h148.27v51.48h-92v22h85v51.21h-85v22h91.43v51.48h-99.07Z"/><path class="cls-1" d="M1375.41,151.37H1458c63.82,0,100.28,38.34,100.28,99.21s-37.27,98.94-100.82,98.94h-82Zm84.72,144.52c27.62,0,40.22-22.79,40.22-45.58S1488,205,1460.13,205h-29v90.89Z"/><path class="cls-1" d="M1576.24,250.58c0-60.33,46.12-102.69,107.25-102.69,32.71,0,59.79,12.33,77,27.08l-34.85,42.09c-11.53-9.38-26.55-15.82-42.64-15.82-30,0-49.6,22-49.6,48.53,0,25.48,17.7,49.61,49.6,49.61,17.43,0,33-7,40-12.87v-11.8h-40V227.52H1773v88.21c-23.86,22-54.43,36.74-90.89,36.74C1619.68,352.47,1576.24,309.3,1576.24,250.58Z"/><path class="cls-1" d="M1802.55,151.37h148.27v51.48h-92v22h85v51.21h-85v22h91.43v51.48H1802.55Z"/><path d="M472.08,316.84c0,12.44-2.49,20.32-11.2,25.3v1.66h52.26v-1.66c-8.3-5-11.2-12.86-11.2-25.3V211.91c0-12,2.49-19.91,11.2-25.31v-1.24H460.88v1.24c8.29,5.4,11.2,13.28,11.2,25.31Zm231.85,27,7.46-33.18-1.66-.42c-9.12,14.52-22.81,20.74-42.72,20.74H607.29V213.15c0-13.27,3.32-21.15,12-26.55v-1.24H567.06l-.42,1.24c8.3,5.4,10.37,12.86,10.37,23.65V318.08c0,11.2-2.49,18.67-10.37,23.65l.42,1.66H703.93Zm253.42-1.66.41,1.66h52.68v-1.66c-8.71-5.39-11.2-13.27-11.2-26.54V278.27l46-68.44c8.29-12.44,15.34-20.32,21.57-22.81v-1.66h-41.07v1.24c7.47,4.57,8.3,14.94.42,27l-34,51-37.33-57.24c-5.81-8.71-4.56-16.59,2.07-20.32v-1.66H899.28v1.24c7.05,2.91,11.2,7.06,18.25,17.84l51,75.9v34.84c.41,13.69-2.49,22-11.2,27M774,253.38V198.63h54.75c24.89,0,34.43,4.15,43.55,17.42l1.66-.41-3.32-30.28H733.79l-.41,1.24c8.29,5.4,10.36,12.86,10.36,23.65V318.08c0,11.2-2.48,18.67-10.36,23.65l.41,1.66H877.71l5.4-32.36-1.25-.41c-9.12,12.86-20.32,19.49-44.79,19.49H774.44V266.24h41.89c17.83,0,27,2.9,31.52,10.78h1.66V242.6l-1.66-.42c-4.56,7.88-13.69,10.79-31.52,10.79H774ZM355.11,349.19h1.25l64.7-167.56c6.22-16.18,12-24.06,17.83-27.79v-1.66h-39v1.66c8.29,4.56,9.95,17,4.56,31.52L364.65,288.64,310.73,151.76h-1.24L252.67,289.05,212,181.21c-4.56-12.86-3.32-22.39,4.15-27v-2.07H159.34v1.66c6.23,3.32,10.37,10.37,16.18,24l66.78,171.3h1.24L300,210.66Z"/><rect class="cls-2" x="1135.9" y="35.88" width="26.32" height="421.23" transform="translate(-25.28 291.42) rotate(-14.3)"/></svg>